<svg width="71" height="31" viewBox="0 0 71 31" fill="none" xmlns="http://www.w3.org/2000/svg">
<path d="M4.27293 7.78873H0.476074V29.6021H4.27293V7.78873Z" fill="white"/>
<path d="M27.1668 11.3099C25.4135 8.73723 22.2441 7.34204 19.1505 7.34204C12.96 7.34204 8.03894 12.1889 8.03894 18.7149C8.03894 25.2037 13.0358 30.0506 19.1505 30.0506C20.6795 30.0506 22.1715 29.678 23.6248 28.9699C25.1167 28.2619 26.3087 27.3135 27.1668 26.0086V29.6038H30.833V7.78883H27.1668V11.3099ZM19.1908 26.3263C15.0665 26.3263 11.7535 22.9424 11.7535 18.6778C11.7535 14.447 15.0665 11.0292 19.1908 11.0292C23.4199 11.0292 26.699 14.4487 26.699 18.6778C26.699 22.9424 23.4199 26.3263 19.1908 26.3263Z" fill="white"/>
<path d="M61.5385 7.2616C57.6433 7.2616 54.9819 8.6584 53.6271 11.4133C52.3319 8.84712 49.3754 7.2616 45.8656 7.2616C42.8865 7.2616 40.6203 8.25839 39.2945 10.1471V7.70838H35.5315V29.6831H39.3316V17.8231C39.3316 13.4085 41.8171 10.5552 45.664 10.5552C49.2044 10.5552 51.5819 12.8908 51.5819 16.3666V29.6847H55.29V17.1667C55.29 15.1344 55.9771 13.3488 57.2255 12.1424C58.3385 11.0665 59.8449 10.5036 61.4708 10.5568C65.137 10.6778 67.3241 12.9762 67.3241 16.7037V29.6863H71V16.7408C71 13.9343 70.1065 11.5552 68.4161 9.86004C66.7274 8.15839 64.3467 7.2616 61.5385 7.2616Z" fill="white"/>
<path d="M2.37425 0C1.06293 0 0 1.06293 0 2.37425C0 3.68557 1.06293 4.74849 2.37425 4.74849C3.68557 4.74849 4.74849 3.68557 4.74849 2.37425C4.74688 1.06293 3.68395 0 2.37425 0Z" fill="white"/>
</svg>
