<svg width="71" height="31" viewBox="0 0 71 31" fill="none" xmlns="http://www.w3.org/2000/svg">
<path d="M4.27293 7.78906H0.476074V29.6025H4.27293V7.78906Z" fill="black"/>
<path d="M27.1668 11.3096C25.4135 8.73699 22.2441 7.3418 19.1505 7.3418C12.96 7.3418 8.03894 12.1887 8.03894 18.7146C8.03894 25.2035 13.0358 30.0504 19.1505 30.0504C20.6795 30.0504 22.1715 29.6778 23.6248 28.9697C25.1167 28.2616 26.3087 27.3132 27.1668 26.0083V29.6036H30.833V7.78858H27.1668V11.3096ZM19.1908 26.3261C15.0665 26.3261 11.7535 22.9421 11.7535 18.6775C11.7535 14.4468 15.0665 11.029 19.1908 11.029C23.4199 11.029 26.699 14.4484 26.699 18.6775C26.699 22.9421 23.4199 26.3261 19.1908 26.3261Z" fill="black"/>
<path d="M61.5385 7.26172C57.6433 7.26172 54.9819 8.65852 53.6271 11.4134C52.3319 8.84724 49.3754 7.26172 45.8656 7.26172C42.8865 7.26172 40.6203 8.25852 39.2945 10.1473V7.7085H35.5315V29.6832H39.3316V17.8232C39.3316 13.4086 41.8171 10.5553 45.664 10.5553C49.2044 10.5553 51.5819 12.8909 51.5819 16.3668V29.6848H55.29V17.1668C55.29 15.1345 55.9771 13.349 57.2255 12.1425C58.3385 11.0666 59.8449 10.5037 61.4708 10.557C65.137 10.6779 67.3241 12.9764 67.3241 16.7039V29.6864H71V16.741C71 13.9344 70.1065 11.5554 68.4161 9.86016C66.7274 8.15851 64.3467 7.26172 61.5385 7.26172Z" fill="black"/>
<path d="M2.37425 0C1.06293 0 0 1.06293 0 2.37425C0 3.68557 1.06293 4.74849 2.37425 4.74849C3.68557 4.74849 4.74849 3.68557 4.74849 2.37425C4.74688 1.06293 3.68395 0 2.37425 0Z" fill="black"/>
</svg>
